<mxfile host="app.diagrams.net" modified="2023-06-09T13:50:13.041Z" agent="Mozilla/5.0 (Windows NT 10.0; Win64; x64) AppleWebKit/537.36 (KHTML, like Gecko) Chrome/114.0.0.0 Safari/537.36" etag="8qiLqqfrnZwgap-qJftp" version="21.3.7" type="device">
  <diagram name="Page-1" id="ZuQKPr9O9UhoZUAeEgMI">
    <mxGraphModel dx="1225" dy="675" grid="1" gridSize="10" guides="1" tooltips="1" connect="1" arrows="1" fold="1" page="1" pageScale="1" pageWidth="850" pageHeight="1100" math="0" shadow="0">
      <root>
        <mxCell id="0" />
        <mxCell id="1" parent="0" />
        <mxCell id="5m3_u7IBbrflvLrdAWPQ-4" value="" style="whiteSpace=wrap;html=1;aspect=fixed;" vertex="1" parent="1">
          <mxGeometry x="167.83" y="330" width="640" height="640" as="geometry" />
        </mxCell>
        <mxCell id="5m3_u7IBbrflvLrdAWPQ-5" value="&lt;font style=&quot;font-size: 10px;&quot;&gt;Tempreture&lt;/font&gt;" style="text;html=1;align=center;verticalAlign=middle;resizable=0;points=[];autosize=1;strokeColor=none;fillColor=none;" vertex="1" parent="1">
          <mxGeometry x="7.8300000000000125" y="320" width="70" height="30" as="geometry" />
        </mxCell>
        <mxCell id="5m3_u7IBbrflvLrdAWPQ-6" value="&lt;font style=&quot;font-size: 10px;&quot;&gt;Heart Beams&lt;/font&gt;" style="text;html=1;align=center;verticalAlign=middle;resizable=0;points=[];autosize=1;strokeColor=none;fillColor=none;" vertex="1" parent="1">
          <mxGeometry x="2.8300000000000125" y="340" width="80" height="30" as="geometry" />
        </mxCell>
        <mxCell id="5m3_u7IBbrflvLrdAWPQ-7" value="&lt;font style=&quot;font-size: 10px;&quot;&gt;Time / Date&lt;/font&gt;" style="text;html=1;align=center;verticalAlign=middle;resizable=0;points=[];autosize=1;strokeColor=none;fillColor=none;" vertex="1" parent="1">
          <mxGeometry x="2.8300000000000125" y="368" width="70" height="30" as="geometry" />
        </mxCell>
        <mxCell id="5m3_u7IBbrflvLrdAWPQ-9" value="Motion" style="text;html=1;align=center;verticalAlign=middle;resizable=0;points=[];autosize=1;strokeColor=none;fillColor=none;" vertex="1" parent="1">
          <mxGeometry x="7.8300000000000125" y="398" width="60" height="30" as="geometry" />
        </mxCell>
        <mxCell id="5m3_u7IBbrflvLrdAWPQ-12" value="DATA" style="edgeStyle=orthogonalEdgeStyle;rounded=0;orthogonalLoop=1;jettySize=auto;html=1;exitX=0;exitY=0.25;exitDx=0;exitDy=0;entryX=0.997;entryY=0.367;entryDx=0;entryDy=0;entryPerimeter=0;endArrow=oval;endFill=1;" edge="1" parent="1" source="5m3_u7IBbrflvLrdAWPQ-10" target="5m3_u7IBbrflvLrdAWPQ-5">
          <mxGeometry relative="1" as="geometry" />
        </mxCell>
        <mxCell id="5m3_u7IBbrflvLrdAWPQ-14" value="GROUND" style="edgeStyle=orthogonalEdgeStyle;rounded=0;orthogonalLoop=1;jettySize=auto;html=1;exitX=0.25;exitY=1;exitDx=0;exitDy=0;" edge="1" parent="1" source="5m3_u7IBbrflvLrdAWPQ-10">
          <mxGeometry relative="1" as="geometry">
            <mxPoint x="292.83000000000004" y="1010" as="targetPoint" />
          </mxGeometry>
        </mxCell>
        <mxCell id="5m3_u7IBbrflvLrdAWPQ-15" value="5V" style="edgeStyle=orthogonalEdgeStyle;rounded=0;orthogonalLoop=1;jettySize=auto;html=1;exitX=0.5;exitY=1;exitDx=0;exitDy=0;" edge="1" parent="1" source="5m3_u7IBbrflvLrdAWPQ-10">
          <mxGeometry relative="1" as="geometry">
            <mxPoint x="392.83000000000004" y="1020" as="targetPoint" />
          </mxGeometry>
        </mxCell>
        <mxCell id="5m3_u7IBbrflvLrdAWPQ-37" style="edgeStyle=orthogonalEdgeStyle;rounded=0;orthogonalLoop=1;jettySize=auto;html=1;exitX=1;exitY=0.5;exitDx=0;exitDy=0;entryX=0.75;entryY=1;entryDx=0;entryDy=0;" edge="1" parent="1" source="5m3_u7IBbrflvLrdAWPQ-10" target="5m3_u7IBbrflvLrdAWPQ-30">
          <mxGeometry relative="1" as="geometry" />
        </mxCell>
        <mxCell id="5m3_u7IBbrflvLrdAWPQ-40" style="edgeStyle=orthogonalEdgeStyle;rounded=0;orthogonalLoop=1;jettySize=auto;html=1;exitX=1;exitY=0.25;exitDx=0;exitDy=0;entryX=0.5;entryY=1;entryDx=0;entryDy=0;" edge="1" parent="1" source="5m3_u7IBbrflvLrdAWPQ-10" target="5m3_u7IBbrflvLrdAWPQ-30">
          <mxGeometry relative="1" as="geometry" />
        </mxCell>
        <mxCell id="5m3_u7IBbrflvLrdAWPQ-10" value="LM35 Temp sensor" style="whiteSpace=wrap;html=1;aspect=fixed;" vertex="1" parent="1">
          <mxGeometry x="207.83" y="390" width="80" height="80" as="geometry" />
        </mxCell>
        <mxCell id="5m3_u7IBbrflvLrdAWPQ-17" style="edgeStyle=orthogonalEdgeStyle;rounded=0;orthogonalLoop=1;jettySize=auto;html=1;exitX=0;exitY=0.75;exitDx=0;exitDy=0;endArrow=oval;endFill=1;" edge="1" parent="1" source="5m3_u7IBbrflvLrdAWPQ-16">
          <mxGeometry relative="1" as="geometry">
            <mxPoint x="242.83" y="570" as="targetPoint" />
          </mxGeometry>
        </mxCell>
        <mxCell id="5m3_u7IBbrflvLrdAWPQ-18" style="edgeStyle=orthogonalEdgeStyle;rounded=0;orthogonalLoop=1;jettySize=auto;html=1;exitX=0;exitY=0.25;exitDx=0;exitDy=0;endArrow=oval;endFill=1;" edge="1" parent="1" source="5m3_u7IBbrflvLrdAWPQ-16">
          <mxGeometry relative="1" as="geometry">
            <mxPoint x="222.83" y="530" as="targetPoint" />
          </mxGeometry>
        </mxCell>
        <mxCell id="5m3_u7IBbrflvLrdAWPQ-19" style="edgeStyle=orthogonalEdgeStyle;rounded=0;orthogonalLoop=1;jettySize=auto;html=1;exitX=0;exitY=0.5;exitDx=0;exitDy=0;entryX=0.995;entryY=0.633;entryDx=0;entryDy=0;entryPerimeter=0;endArrow=diamond;endFill=1;" edge="1" parent="1" source="5m3_u7IBbrflvLrdAWPQ-16" target="5m3_u7IBbrflvLrdAWPQ-6">
          <mxGeometry relative="1" as="geometry" />
        </mxCell>
        <mxCell id="5m3_u7IBbrflvLrdAWPQ-16" value="pulse sensor&amp;nbsp;&lt;br&gt;ISN-11574" style="whiteSpace=wrap;html=1;aspect=fixed;" vertex="1" parent="1">
          <mxGeometry x="292.83000000000004" y="505" width="80" height="80" as="geometry" />
        </mxCell>
        <mxCell id="5m3_u7IBbrflvLrdAWPQ-21" style="edgeStyle=orthogonalEdgeStyle;rounded=0;orthogonalLoop=1;jettySize=auto;html=1;exitX=0.25;exitY=1;exitDx=0;exitDy=0;endArrow=diamond;endFill=1;" edge="1" parent="1" source="5m3_u7IBbrflvLrdAWPQ-20">
          <mxGeometry relative="1" as="geometry">
            <mxPoint x="222.83" y="530" as="targetPoint" />
          </mxGeometry>
        </mxCell>
        <mxCell id="5m3_u7IBbrflvLrdAWPQ-23" style="edgeStyle=orthogonalEdgeStyle;rounded=0;orthogonalLoop=1;jettySize=auto;html=1;exitX=0.5;exitY=1;exitDx=0;exitDy=0;endArrow=oval;endFill=1;" edge="1" parent="1" source="5m3_u7IBbrflvLrdAWPQ-20">
          <mxGeometry relative="1" as="geometry">
            <mxPoint x="242.83" y="520" as="targetPoint" />
          </mxGeometry>
        </mxCell>
        <mxCell id="5m3_u7IBbrflvLrdAWPQ-24" style="edgeStyle=orthogonalEdgeStyle;rounded=0;orthogonalLoop=1;jettySize=auto;html=1;exitX=0;exitY=0.25;exitDx=0;exitDy=0;entryX=1.046;entryY=0.607;entryDx=0;entryDy=0;entryPerimeter=0;endArrow=oval;endFill=1;" edge="1" parent="1" source="5m3_u7IBbrflvLrdAWPQ-20" target="5m3_u7IBbrflvLrdAWPQ-7">
          <mxGeometry relative="1" as="geometry" />
        </mxCell>
        <mxCell id="5m3_u7IBbrflvLrdAWPQ-20" value="Time/ Date organizer" style="whiteSpace=wrap;html=1;aspect=fixed;" vertex="1" parent="1">
          <mxGeometry x="312.83000000000004" y="360" width="80" height="80" as="geometry" />
        </mxCell>
        <mxCell id="5m3_u7IBbrflvLrdAWPQ-26" style="edgeStyle=orthogonalEdgeStyle;rounded=0;orthogonalLoop=1;jettySize=auto;html=1;exitX=0;exitY=0.25;exitDx=0;exitDy=0;entryX=0.643;entryY=1.073;entryDx=0;entryDy=0;entryPerimeter=0;endArrow=oval;endFill=1;" edge="1" parent="1" source="5m3_u7IBbrflvLrdAWPQ-25" target="5m3_u7IBbrflvLrdAWPQ-9">
          <mxGeometry relative="1" as="geometry">
            <Array as="points">
              <mxPoint x="542.83" y="370" />
              <mxPoint x="294.83000000000004" y="370" />
              <mxPoint x="294.83000000000004" y="430" />
            </Array>
          </mxGeometry>
        </mxCell>
        <mxCell id="5m3_u7IBbrflvLrdAWPQ-27" style="edgeStyle=orthogonalEdgeStyle;rounded=0;orthogonalLoop=1;jettySize=auto;html=1;exitX=0.25;exitY=1;exitDx=0;exitDy=0;endArrow=oval;endFill=1;" edge="1" parent="1" source="5m3_u7IBbrflvLrdAWPQ-25">
          <mxGeometry relative="1" as="geometry">
            <mxPoint x="292.83000000000004" y="780" as="targetPoint" />
          </mxGeometry>
        </mxCell>
        <mxCell id="5m3_u7IBbrflvLrdAWPQ-28" style="edgeStyle=orthogonalEdgeStyle;rounded=0;orthogonalLoop=1;jettySize=auto;html=1;exitX=0.75;exitY=1;exitDx=0;exitDy=0;endArrow=oval;endFill=1;" edge="1" parent="1" source="5m3_u7IBbrflvLrdAWPQ-25">
          <mxGeometry relative="1" as="geometry">
            <mxPoint x="392.83000000000004" y="760" as="targetPoint" />
          </mxGeometry>
        </mxCell>
        <mxCell id="5m3_u7IBbrflvLrdAWPQ-39" style="edgeStyle=orthogonalEdgeStyle;rounded=0;orthogonalLoop=1;jettySize=auto;html=1;exitX=1;exitY=0.25;exitDx=0;exitDy=0;entryX=0.25;entryY=1;entryDx=0;entryDy=0;" edge="1" parent="1" source="5m3_u7IBbrflvLrdAWPQ-25" target="5m3_u7IBbrflvLrdAWPQ-30">
          <mxGeometry relative="1" as="geometry" />
        </mxCell>
        <mxCell id="5m3_u7IBbrflvLrdAWPQ-25" value="DFRobot Gravity Digital PIR Motion Sensor" style="whiteSpace=wrap;html=1;aspect=fixed;" vertex="1" parent="1">
          <mxGeometry x="542.83" y="410" width="80" height="80" as="geometry" />
        </mxCell>
        <mxCell id="5m3_u7IBbrflvLrdAWPQ-33" style="edgeStyle=orthogonalEdgeStyle;rounded=0;orthogonalLoop=1;jettySize=auto;html=1;exitX=0.25;exitY=0;exitDx=0;exitDy=0;entryX=0;entryY=0.25;entryDx=0;entryDy=0;" edge="1" parent="1" source="5m3_u7IBbrflvLrdAWPQ-29" target="5m3_u7IBbrflvLrdAWPQ-30">
          <mxGeometry relative="1" as="geometry" />
        </mxCell>
        <mxCell id="5m3_u7IBbrflvLrdAWPQ-45" style="edgeStyle=orthogonalEdgeStyle;rounded=0;orthogonalLoop=1;jettySize=auto;html=1;exitX=0.75;exitY=1;exitDx=0;exitDy=0;entryX=0.457;entryY=0.967;entryDx=0;entryDy=0;entryPerimeter=0;" edge="1" parent="1" source="5m3_u7IBbrflvLrdAWPQ-29" target="5m3_u7IBbrflvLrdAWPQ-9">
          <mxGeometry relative="1" as="geometry" />
        </mxCell>
        <mxCell id="5m3_u7IBbrflvLrdAWPQ-46" style="edgeStyle=orthogonalEdgeStyle;rounded=0;orthogonalLoop=1;jettySize=auto;html=1;exitX=0.5;exitY=1;exitDx=0;exitDy=0;entryX=-0.04;entryY=0.527;entryDx=0;entryDy=0;entryPerimeter=0;" edge="1" parent="1" source="5m3_u7IBbrflvLrdAWPQ-29" target="5m3_u7IBbrflvLrdAWPQ-7">
          <mxGeometry relative="1" as="geometry" />
        </mxCell>
        <mxCell id="5m3_u7IBbrflvLrdAWPQ-47" style="edgeStyle=orthogonalEdgeStyle;rounded=0;orthogonalLoop=1;jettySize=auto;html=1;exitX=0.25;exitY=1;exitDx=0;exitDy=0;entryX=-0.015;entryY=0.553;entryDx=0;entryDy=0;entryPerimeter=0;" edge="1" parent="1" source="5m3_u7IBbrflvLrdAWPQ-29" target="5m3_u7IBbrflvLrdAWPQ-6">
          <mxGeometry relative="1" as="geometry" />
        </mxCell>
        <mxCell id="5m3_u7IBbrflvLrdAWPQ-48" style="edgeStyle=orthogonalEdgeStyle;rounded=0;orthogonalLoop=1;jettySize=auto;html=1;exitX=0;exitY=1;exitDx=0;exitDy=0;" edge="1" parent="1" source="5m3_u7IBbrflvLrdAWPQ-29" target="5m3_u7IBbrflvLrdAWPQ-5">
          <mxGeometry relative="1" as="geometry" />
        </mxCell>
        <mxCell id="5m3_u7IBbrflvLrdAWPQ-51" style="edgeStyle=orthogonalEdgeStyle;rounded=0;orthogonalLoop=1;jettySize=auto;html=1;exitX=0.75;exitY=0;exitDx=0;exitDy=0;entryX=0;entryY=0.75;entryDx=0;entryDy=0;" edge="1" parent="1" source="5m3_u7IBbrflvLrdAWPQ-29" target="5m3_u7IBbrflvLrdAWPQ-30">
          <mxGeometry relative="1" as="geometry" />
        </mxCell>
        <mxCell id="5m3_u7IBbrflvLrdAWPQ-29" value="encoder" style="shape=trapezoid;perimeter=trapezoidPerimeter;whiteSpace=wrap;html=1;fixedSize=1;rotation=-90;direction=north;" vertex="1" parent="1">
          <mxGeometry x="575.33" y="632.5" width="37.5" height="87.5" as="geometry" />
        </mxCell>
        <mxCell id="5m3_u7IBbrflvLrdAWPQ-41" style="edgeStyle=orthogonalEdgeStyle;rounded=0;orthogonalLoop=1;jettySize=auto;html=1;exitX=1;exitY=1;exitDx=0;exitDy=0;entryX=1;entryY=0.5;entryDx=0;entryDy=0;endArrow=oval;endFill=1;" edge="1" parent="1" source="5m3_u7IBbrflvLrdAWPQ-30" target="5m3_u7IBbrflvLrdAWPQ-16">
          <mxGeometry relative="1" as="geometry" />
        </mxCell>
        <mxCell id="5m3_u7IBbrflvLrdAWPQ-50" style="edgeStyle=orthogonalEdgeStyle;rounded=0;orthogonalLoop=1;jettySize=auto;html=1;exitX=0.5;exitY=0;exitDx=0;exitDy=0;" edge="1" parent="1" source="5m3_u7IBbrflvLrdAWPQ-30">
          <mxGeometry relative="1" as="geometry">
            <mxPoint x="932.83" y="740" as="targetPoint" />
          </mxGeometry>
        </mxCell>
        <mxCell id="5m3_u7IBbrflvLrdAWPQ-58" value="Data Bus" style="edgeLabel;html=1;align=center;verticalAlign=middle;resizable=0;points=[];" vertex="1" connectable="0" parent="5m3_u7IBbrflvLrdAWPQ-50">
          <mxGeometry x="0.3947" y="1" relative="1" as="geometry">
            <mxPoint as="offset" />
          </mxGeometry>
        </mxCell>
        <mxCell id="5m3_u7IBbrflvLrdAWPQ-30" value="MUX" style="shape=trapezoid;perimeter=trapezoidPerimeter;whiteSpace=wrap;html=1;fixedSize=1;direction=south;" vertex="1" parent="1">
          <mxGeometry x="552.83" y="720" width="60" height="120" as="geometry" />
        </mxCell>
        <mxCell id="5m3_u7IBbrflvLrdAWPQ-36" value="&lt;font style=&quot;font-size: 10px;&quot;&gt;Heart Beams&lt;/font&gt;" style="text;html=1;align=center;verticalAlign=middle;resizable=0;points=[];autosize=1;strokeColor=none;fillColor=none;" vertex="1" parent="1">
          <mxGeometry x="12.830000000000013" y="350" width="80" height="30" as="geometry" />
        </mxCell>
        <mxCell id="5m3_u7IBbrflvLrdAWPQ-57" value="Control Bus" style="edgeStyle=orthogonalEdgeStyle;rounded=0;orthogonalLoop=1;jettySize=auto;html=1;exitX=0.5;exitY=0;exitDx=0;exitDy=0;" edge="1" parent="1" source="5m3_u7IBbrflvLrdAWPQ-54">
          <mxGeometry relative="1" as="geometry">
            <mxPoint x="932.83" y="676" as="targetPoint" />
          </mxGeometry>
        </mxCell>
        <mxCell id="5m3_u7IBbrflvLrdAWPQ-54" value="encoder" style="shape=trapezoid;perimeter=trapezoidPerimeter;whiteSpace=wrap;html=1;fixedSize=1;rotation=-90;direction=west;" vertex="1" parent="1">
          <mxGeometry x="657.83" y="657.5" width="87.5" height="37.5" as="geometry" />
        </mxCell>
        <mxCell id="5m3_u7IBbrflvLrdAWPQ-55" value="" style="endArrow=classic;html=1;rounded=0;entryX=0.75;entryY=1;entryDx=0;entryDy=0;" edge="1" parent="1" target="5m3_u7IBbrflvLrdAWPQ-54">
          <mxGeometry width="50" height="50" relative="1" as="geometry">
            <mxPoint x="569.08" y="707.5" as="sourcePoint" />
            <mxPoint x="619.08" y="657.5" as="targetPoint" />
          </mxGeometry>
        </mxCell>
        <mxCell id="5m3_u7IBbrflvLrdAWPQ-56" value="" style="endArrow=classic;html=1;rounded=0;entryX=0.376;entryY=0.968;entryDx=0;entryDy=0;entryPerimeter=0;" edge="1" parent="1" target="5m3_u7IBbrflvLrdAWPQ-54">
          <mxGeometry width="50" height="50" relative="1" as="geometry">
            <mxPoint x="592.83" y="720" as="sourcePoint" />
            <mxPoint x="692.83" y="708" as="targetPoint" />
          </mxGeometry>
        </mxCell>
      </root>
    </mxGraphModel>
  </diagram>
</mxfile>
